#!OML:ASF H:\Terrain\Patient Classification 1\Animal1\Tuesday\Animal1.ASF
:FULLY-SPECIFIED
:DEGREES
1787
root 8.51991 15.502 -0.190826 -166.554 64.6284 -186.316
lowerback 25.3468 -6.83909 0.129744
upperback 11.7913 -7.28164 -0.122749
thorax -0.961733 -3.0276 1.61789
lowerneck -9.23591 3.77296 -2.07897
upperneck -17.3944 5.71927 -3.96057
head -4.0758 3.57143 -1.03944
rclavicle 2.78299e-014 -1.63003e-014
rhumerus 49.5119 63.0916 -45.4889
rradius 34.3196
rwrist -19.6251
rhand -21.3113 21.7651
rfingers 7.12502
rthumb 5.07381 -8.15412
lclavicle 2.78299e-014 -1.63003e-014
lhumerus 35.9769 -16.121 45.6978
lradius 28.4524
lwrist -27.9831
lhand -1.91672 41.0571
lfingers 7.12502
lthumb 23.7533 69.609
rfemur -59.8579 -3.2251 10.7078
rtibia 48.1196
rfoot -4.44039 -13.8812
rtoes 17.0805
lfemur -50.2332 17.3855 -26.4657
ltibia 78.2069
lfoot -2.38678 -6.8891
ltoes 3.27366
1788
root 8.61631 15.4148 -0.151953 -165.16 64.0059 -184.706
lowerback 26.4358 -6.73114 0.299292
upperback 12.0295 -6.99808 -0.22902
thorax -1.24769 -2.83912 1.42133
lowerneck -9.2521 3.77964 -1.03526
upperneck -17.8436 5.61465 -4.66742
head -4.18642 3.51174 -1.46665
rclavicle -3.89618e-014 9.54166e-015
rhumerus 50.5778 62.6672 -44.5451
rradius 34.6073
rwrist -19.2822
rhand -21.813 21.6823
rfingers 7.12502
rthumb 4.58935 -8.24801
lclavicle -3.89618e-014 9.54166e-015
lhumerus 36.8414 -15.8764 45.7231
lradius 29.4987
lwrist -26.0095
lhand -1.36047 40.5266
lfingers 7.12502
lthumb 24.2867 69.0081
rfemur -60.4134 -4.41357 12.603
rtibia 49.8089
rfoot -5.59187 -13.2176
rtoes 15.5101
lfemur -52.0726 18.5647 -25.7674
ltibia 79.8406
lfoot -3.16953 -5.15815
ltoes 1.2775
1789
root 8.7091 15.3434 -0.116198 -163.354 63.4964 -182.746
lowerback 27.4843 -6.58046 0.661543
upperback 12.2298 -6.62175 -0.348835
thorax -1.57299 -2.60043 1.06677
lowerneck -9.05414 3.79679 0.130193
upperneck -18.4386 5.50431 -5.43723
head -4.3922 3.44837 -1.95645
rclavicle 1.145e-013 -3.02153e-014
rhumerus 51.394 62.1183 -43.7277
rradius 35.0446
rwrist -19.3017
rhand -22.1253 21.771
rfingers 7.12502
rthumb 4.28777 -8.16559
lclavicle 1.145e-013 -3.02153e-014
lhumerus 37.7024 -15.3634 46.2447
lradius 30.3617
lwrist -25.0507
lhand -0.794092 39.7467
lfingers 7.12502
lthumb 24.8296 68.1546
rfemur -61.2552 -5.92146 14.9284
rtibia 51.4262
rfoot -6.16446 -11.9254
rtoes 14.5591
lfemur -54.2953 19.7441 -24.9482
ltibia 81.1853
lfoot -3.83681 -3.99969
ltoes 7.19102
1790
root 8.80337 15.288 -0.086235 -162.488 63.1304 -181.661
lowerback 28.6479 -6.36786 0.644661
upperback 12.2849 -6.2761 -0.532076
thorax -2.06587 -2.39424 0.864968
lowerneck -7.83338 3.76283 0.660164
upperneck -19.7327 5.33218 -5.87333
head -4.48124 3.40701 -2.05399
rclavicle 8.18993e-014 -3.4191e-014
rhumerus 51.8903 61.8546 -42.9454
rradius 35.6219
rwrist -19.475
rhand -21.2953 22.7748
rfingers 7.12502
rthumb 5.08923 -7.14407
lclavicle 8.18993e-014 -3.4191e-014
lhumerus 38.2459 -15.0624 47.0461
lradius 31.2286
lwrist -24.5679
lhand 0.295157 39.0071
lfingers 7.12502
lthumb 25.8731 67.267
rfemur -62.1173 -7.62956 17.0622
rtibia 52.9333
rfoot -6.16476 -10.8109
rtoes 12.4464
lfemur -56.1374 20.7868 -24.5042
ltibia 82.0895
lfoot -4.66728 -3.18825
ltoes 12.7328
1791
root 8.89577 15.2617 -0.0572549 -162.051 62.8897 -180.93
lowerback 29.944 -6.10704 0.246475
upperback 12.3797 -5.9489 -0.587262
thorax -2.50754 -2.20982 1.01447
lowerneck -7.29567 3.68449 0.339513
upperneck -20.2283 5.25676 -5.70806
head -4.73826 3.4077 -1.97756
rclavicle -3.02153e-014 7.95139e-016
rhumerus 53.5349 61.7499 -40.7726
rradius 36.2773
rwrist -19.4735
rhand -20.9905 23.1804
rfingers 7.12502
rthumb 5.38356 -6.73117
lclavicle -3.02153e-014 7.95139e-016
lhumerus 38.7066 -14.805 47.7978
lradius 32.0782
lwrist -24.0984
lhand 1.29314 38.222
lfingers 7.12502
lthumb 26.8284 66.3389
rfemur -62.5486 -8.04597 18.1827
rtibia 54.2243
rfoot -6.08417 -11.1655
rtoes 10.5802
lfemur -57.5893 21.9434 -24.3613
ltibia 82.5101
lfoot -5.40689 -2.68426
ltoes 9.53412
1792
root 8.98578 15.2155 -0.0289129 -160.535 62.7363 -179.239
lowerback 31.0538 -5.77326 0.0855327
upperback 12.538 -5.47429 -0.565194
thorax -2.80634 -1.95084 1.04379
lowerneck -7.40945 3.58297 0.343079
upperneck -20.3724 5.14893 -5.62542
head -4.77105 3.36392 -1.95316
rclavicle -5.08889e-014 4.37326e-014
rhumerus 55.6964 61.4061 -38.2105
rradius 36.7578
rwrist -19.4944
rhand -21.8881 22.3591
rfingers 7.12502
rthumb 4.51683 -7.57273
lclavicle -5.08889e-014 4.37326e-014
lhumerus 39.3802 -14.8042 47.9862
lradius 32.9759
lwrist -23.4283
lhand 0.812672 37.6804
lfingers 7.12502
lthumb 26.3685 65.8669
rfemur -62.7738 -7.40659 19.0358
rtibia 55.3402
rfoot -6.84221 -11.8373
rtoes 10.402
lfemur -59.5255 23.2589 -23.9201
ltibia 82.8288
lfoot -6.34347 -2.39839
ltoes 4.4947
1793
root 9.07952 15.1315 -0.00260735 -158.799 62.6226 -177.667
lowerback 31.7673 -5.37449 -0.16887
upperback 12.8023 -4.95621 -0.611739
thorax -2.80461 -1.67667 0.999001
lowerneck -8.1627 3.46017 0.723572
upperneck -20.2307 5.00913 -5.6377
head -4.60073 3.277 -1.99704
rclavicle 2.3059e-014 -3.18055e-015
rhumerus 57.8015 60.6258 -35.8793
rradius 37.0895
rwrist -19.5647
rhand -22.496 21.9104
rfingers 7.12502
rthumb 3.92983 -8.03306
lclavicle 2.3059e-014 -3.18055e-015
lhumerus 40.3209 -14.8735 47.7803
lradius 33.9476
lwrist -22.6322
lhand 0.00433596 37.5676
lfingers 7.12502
lthumb 25.5945 65.8678
rfemur -63.4694 -7.63417 20.3091
rtibia 56.3962
rfoot -8.14262 -11.0834
rtoes 10.7007
lfemur -61.87 24.4238 -23.7155
ltibia 82.8994
lfoot -7.17746 -2.18498
ltoes 3.08909
1794
root 9.17798 15.0582 0.0207172 -157.585 62.5154 -176.892
lowerback 32.2387 -4.92273 -0.805665
upperback 13.0543 -4.49858 -0.684648
thorax -2.67795 -1.45077 1.14447
lowerneck -8.8943 3.33382 1.29788
upperneck -20.1654 4.81762 -5.87776
head -4.4486 3.166 -2.14735
rclavicle 5.88403e-014 -3.89618e-014
rhumerus 59.3986 59.648 -34.0857
rradius 37.4543
rwrist -19.1805
rhand -22.2479 21.9401
rfingers 7.12502
rthumb 4.16942 -7.99887
lclavicle 5.88403e-014 -3.89618e-014
lhumerus 41.267 -14.8556 47.5845
lradius 34.8659
lwrist -22.1588
lhand -0.58733 37.7129
lfingers 7.12502
lthumb 25.0277 66.0933
rfemur -64.4195 -7.80898 21.1324
rtibia 57.4557
rfoot -9.1466 -10.6121
rtoes 10.9119
lfemur -64.233 25.3254 -24.0199
ltibia 82.5469
lfoot -7.36177 -2.31813
ltoes 5.10709
1795
root 9.27229 15.0562 0.0380869 -156.818 62.4601 -176.627
lowerback 32.7157 -4.45417 -1.62613
upperback 13.2455 -4.09248 -0.826306
thorax -2.61495 -1.25708 1.33555
lowerneck -9.29895 3.22569 2.00594
upperneck -20.3428 4.6082 -6.28517
head -4.41703 3.05271 -2.38754
rclavicle 4.92986e-014 -3.18055e-015
rhumerus 60.4117 58.6157 -32.9477
rradius 37.7342
rwrist -18.2165
rhand -22.0925 21.8967
rfingers 7.12502
rthumb 4.31945 -8.03927
lclavicle 4.92986e-014 -3.18055e-015
lhumerus 42.4803 -15.0863 46.7002
lradius 35.6325
lwrist -21.5109
lhand -1.32147 38.1127
lfingers 7.12502
lthumb 24.324 66.5893
rfemur -66.2103 -8.35053 22.3507
rtibia 58.5165
rfoot -7.19269 -11.1072
rtoes 5.76266
lfemur -66.2963 25.9597 -24.6363
ltibia 81.5141
lfoot -7.58837 -2.58923
ltoes 9.63496
1796
root 9.37119 15.005 0.0499744 -156.536 62.4852 -176.968
lowerback 33.1259 -3.96865 -2.64585
upperback 13.368 -3.7494 -1.05248
thorax -2.59287 -1.10227 1.56427
lowerneck -9.44438 3.0983 2.52126
upperneck -20.5321 4.38239 -6.58181
head -4.44055 2.93564 -2.56832
rclavicle -3.81667e-014 2.8625e-014
rhumerus 61.2735 57.6875 -31.9433
rradius 37.9128
rwrist -17.7055
rhand -22.3642 22.2712
rfingers 7.12502
rthumb 4.05708 -7.66987
lclavicle -3.81667e-014 2.8625e-014
lhumerus 43.9207 -15.556 45.4403
lradius 36.0563
lwrist -20.7417
lhand -1.61103 38.5461
lfingers 7.12502
lthumb 24.0464 67.0596
rfemur -67.1938 -8.59818 22.6709
rtibia 59.6054
rfoot -8.16378 -10.9655
rtoes 4.8748
lfemur -68.4504 26.4108 -25.6748
ltibia 80.4551
lfoot -8.33885 -2.13914
ltoes 7.04484
1797
root 9.46484 14.9607 0.0581387 -156.057 62.299 -177.032
lowerback 34.115 -3.5732 -3.44751
upperback 13.1173 -3.49369 -1.11437
thorax -2.76095 -0.976068 1.72097
lowerneck -9.65927 2.93493 2.73467
upperneck -20.5808 4.15397 -6.6266
head -4.42643 2.81919 -2.61533
rclavicle 1.43125e-014 -7.15625e-015
rhumerus 62.0529 56.768 -30.9774
rradius 38.089
rwrist -17.5344
rhand -22.4376 22.7603
rfingers 7.12502
rthumb 3.98623 -7.18217
lclavicle 1.43125e-014 -7.15625e-015
lhumerus 44.9852 -15.6867 45.3579
lradius 36.2188
lwrist -21.3383
lhand -2.18441 38.9198
lfingers 7.12502
lthumb 23.4965 67.5048
rfemur -68.0905 -8.98462 23.296
rtibia 60.607
rfoot -9.02356 -11.2467
rtoes 4.48155
lfemur -70.4705 26.6205 -26.5192
ltibia 79.2377
lfoot -8.89943 -1.23496
ltoes 2.38847
1798
root 9.55776 14.8864 0.0630776 -155.077 61.87 -176.518
lowerback 34.6936 -3.31405 -3.89639
upperback 13.2345 -3.26396 -1.10724
thorax -2.81524 -0.859532 1.8988
lowerneck -9.88858 2.75758 2.58098
upperneck -20.7803 3.96454 -6.47095
head -4.47034 2.74821 -2.54323
rclavicle -9.54166e-015 -7.15625e-015
rhumerus 62.6789 55.7781 -30.0387
rradius 38.3243
rwrist -16.9711
rhand -22.4492 22.7899
rfingers 7.12502
rthumb 3.97502 -7.15275
lclavicle -9.54166e-015 -7.15625e-015
lhumerus 45.6886 -15.5463 46.0426
lradius 36.3675
lwrist -22.9045
lhand -2.79865 39.0268
lfingers 7.12502
lthumb 22.9072 67.6861
rfemur -67.8288 -8.73664 22.7396
rtibia 61.5845
rfoot -12.4841 -8.94984
rtoes 10.7481
lfemur -72.7226 26.7171 -26.9431
ltibia 78.1701
lfoot -9.30113 -0.562007
ltoes 1.14744
1799
root 9.64921 14.8159 0.0668678 -153.998 61.4064 -175.941
lowerback 35.1626 -3.06365 -4.29776
upperback 13.3596 -3.03518 -1.10995
thorax -2.82522 -0.744752 2.03728
lowerneck -10.0491 2.57679 2.60154
upperneck -20.992 3.72547 -6.53646
head -4.52003 2.65099 -2.57094
rclavicle 4.77083e-015 6.36111e-015
rhumerus 62.7539 54.7342 -29.6869
rradius 38.6438
rwrist -16.2408
rhand -22.6641 22.9876
rfingers 7.12502
rthumb 3.76745 -6.9588
lclavicle 4.77083e-015 6.36111e-015
lhumerus 46.4767 -15.6104 45.8275
lradius 36.6416
lwrist -23.9804
lhand -2.99491 39.0963
lfingers 7.12502
lthumb 22.7189 67.7788
rfemur -68.64 -9.07238 23.8127
rtibia 62.3952
rfoot -13.2885 -9.76941
rtoes 9.56407
lfemur -74.8919 26.7433 -27.3574
ltibia 76.9082
lfoot -9.8674 0.262391
ltoes -0.246537
1800
root 9.73909 14.7477 0.0604544 -152.922 60.8285 -175.197
lowerback 35.7797 -2.93722 -4.36914
upperback 13.5008 -2.85862 -1.26787
thorax -2.89373 -0.629856 1.85815
lowerneck -10.1872 2.4217 3.10175
upperneck -21.1159 3.45432 -6.82339
head -4.53205 2.50797 -2.74661
rclavicle -1.74931e-014 -5.48646e-014
rhumerus 62.2137 53.5698 -30.2566
rradius 38.8754
rwrist -15.5884
rhand -22.8251 23.4028
rfingers 7.12502
rthumb 3.61202 -6.54637
lclavicle -1.74931e-014 -5.48646e-014
lhumerus 47.4048 -15.7412 44.9007
lradius 36.9468
lwrist -24.6507
lhand -3.53596 39.5857
lfingers 7.12502
lthumb 22.1995 68.3309
rfemur -69.2705 -9.09152 24.3247
rtibia 63.306
rfoot -14.5353 -10.1683
rtoes 10.1978
lfemur -76.7683 26.523 -27.4795
ltibia 75.4716
lfoot -10.2961 1.44368
ltoes 0.205307
1801
root 9.82019 14.686 0.0419755 -151.8 60.0146 -174.513
lowerback 36.156 -3.06217 -4.00999
upperback 13.7243 -2.83888 -1.54007
thorax -2.81462 -0.57241 1.38177
lowerneck -10.4018 2.35 3.57395
upperneck -21.1909 3.31251 -7.02878
head -4.51548 2.4265 -2.89024
rclavicle 5.40694e-014 8.98507e-014
rhumerus 61.6874 52.2664 -30.9917
rradius 38.9726
rwrist -15.0605
rhand -22.9308 23.6185
rfingers 7.12502
rthumb 3.50988 -6.33234
lclavicle 5.40694e-014 8.98507e-014
lhumerus 48.416 -15.6975 44.474
lradius 36.9747
lwrist -25.7702
lhand -4.5421 40.084
lfingers 7.12502
lthumb 21.2333 68.941
rfemur -70.0432 -9.51573 25.0382
rtibia 64.1755
rfoot -15.7547 -10.4375
rtoes 11.0184
lfemur -78.4903 25.8182 -27.3602
ltibia 73.7765
lfoot -10.0509 2.85768
ltoes -0.0244762
